<svg id="Capa_1" enable-background="new 0 0 512 512" height="512" viewBox="0 0 512 512" width="512" xmlns="http://www.w3.org/2000/svg"><g><g fill="#554e56"><path d="m153.929 482.039h-93.426c-3.412 0-6.179-2.766-6.179-6.179v-46.358h105.784v46.358c0 3.412-2.767 6.179-6.179 6.179z"/><path d="m451.497 482.039h-93.426c-3.412 0-6.179-2.766-6.179-6.179v-46.358h105.784v46.358c0 3.412-2.766 6.179-6.179 6.179z"/></g><path d="m512 432.94c0 10.66-8.642 19.302-19.302 19.302h-473.396c-10.66-.001-19.302-8.642-19.302-19.302v-383.677c0-10.66 8.642-19.302 19.302-19.302h473.397c10.66 0 19.302 8.642 19.302 19.302v383.677z" fill="#685e68"/><path d="m512 49.263c0-10.66-8.642-19.302-19.302-19.302h-20.559c10.66 0 19.302 8.642 19.302 19.302v383.677c0 10.66-8.642 19.302-19.302 19.302h20.559c10.66 0 19.302-8.642 19.302-19.302z" fill="#554e56"/><path d="m471.609 280.229h-431.218c-5.726 0-10.369-4.642-10.369-10.369v-130.33c0-5.726 4.642-10.369 10.369-10.369h431.217c5.726 0 10.369 4.642 10.369 10.369v130.331c0 5.726-4.642 10.368-10.368 10.368z" fill="#fe7d43"/><path d="m471.609 129.161h-20.559c5.726 0 10.369 4.642 10.369 10.369v130.331c0 5.726-4.642 10.369-10.369 10.369h20.559c5.727 0 10.369-4.642 10.369-10.369v-130.331c-.001-5.727-4.643-10.369-10.369-10.369z" fill="#fd544c"/><path d="m476.572 102.868h-441.144c-2.985 0-5.405-2.42-5.405-5.405v-33.308c0-2.985 2.42-5.405 5.405-5.405h441.144c2.985 0 5.405 2.42 5.405 5.405v33.308c0 2.985-2.42 5.405-5.405 5.405z" fill="#c0d4de"/><path d="m476.572 350.641h-441.144c-2.985 0-5.405-2.42-5.405-5.405v-33.308c0-2.985 2.42-5.405 5.405-5.405h441.144c2.985 0 5.405 2.42 5.405 5.405v33.308c0 2.985-2.42 5.405-5.405 5.405z" fill="#c0d4de"/><g fill="#554e56"><path d="m74.56 129.161h24.498v151.068h-24.498z"/><path d="m142.236 129.161h24.498v151.068h-24.498z"/><path d="m209.913 129.161h24.498v151.068h-24.498z"/><path d="m277.59 129.161h24.498v151.068h-24.498z"/><path d="m345.266 129.161h24.498v151.068h-24.498z"/><path d="m412.943 129.161h24.498v151.068h-24.498z"/></g><g><path d="m481.978 88.536h-451.955c-4.268 0-7.726-3.459-7.726-7.726 0-4.268 3.459-7.726 7.726-7.726h451.955c4.268 0 7.726 3.459 7.726 7.726s-3.459 7.726-7.726 7.726z" fill="#b2c5d1"/></g><g><path d="m481.978 336.308h-451.955c-4.268 0-7.726-3.459-7.726-7.726s3.459-7.726 7.726-7.726h451.955c4.268 0 7.726 3.459 7.726 7.726s-3.459 7.726-7.726 7.726z" fill="#b2c5d1"/></g><g><path d="m276.621 405.629c0 11.271-9.232 20.408-20.621 20.408s-20.621-9.137-20.621-20.408c.746-13.923 8.77-17.387 16.13-34.047.696-1.575 2.888-1.737 3.802-.278 5.084 8.119 7.436 16.953 6.566 26.629-.129 1.434 1.126 2.64 2.537 2.351 2.881-.59 5.197-2.492 7.166-5.2 1.096-1.508 3.478-.996 3.857.829.631 3.029 1.029 6.263 1.184 9.716z" fill="#fe7d43"/></g></g></svg>