<svg enable-background="new 0 0 512 512" height="512" viewBox="0 0 512 512" width="512" xmlns="http://www.w3.org/2000/svg"><g id="_x31_3_Heater"><g><g><path d="m487.596 179.162v238.578c0 17.239-13.975 31.214-31.214 31.214h-400.586c-17.239 0-31.214-13.975-31.214-31.214v-238.578c0-17.239 13.975-31.214 31.214-31.214h400.586c17.239-.001 31.214 13.975 31.214 31.214z" fill="#eef0ee"/><path d="m127.633 412.045v-227.188c0-8.62 6.988-15.607 15.607-15.607h307.446c8.62 0 15.607 6.988 15.607 15.607v227.188c0 8.62-6.988 15.607-15.607 15.607h-307.446c-8.619 0-15.607-6.987-15.607-15.607z" fill="#f9e109"/><path d="m466.292 184.846v227.189c0 8.636-6.997 15.607-15.607 15.607h-4.006v-224.406c0-8.61-6.997-15.607-15.607-15.607h-303.431v-2.783c0-8.61 6.971-15.607 15.607-15.607h307.436c8.611 0 15.608 6.997 15.608 15.607z" opacity=".1"/><g fill="#fff"><path d="m148.451 277.526c-1.796 0-3.252 1.456-3.252 3.252v30.929c0 1.796 1.456 3.251 3.252 3.251s3.252-1.456 3.252-3.251v-30.929c-.001-1.796-1.456-3.252-3.252-3.252z"/><path d="m148.451 252.296c-1.796 0-3.252 1.456-3.252 3.251v8.661c0 1.796 1.456 3.251 3.252 3.251s3.252-1.456 3.252-3.251v-8.661c-.001-1.796-1.456-3.251-3.252-3.251z"/></g><path d="m133.884 448.957v17.818c0 7.887-6.394 14.281-14.281 14.281h-33.243c-7.887 0-14.281-6.394-14.281-14.281v-17.818z" fill="#878787"/><path d="m440.098 448.957v17.818c0 7.887-6.394 14.281-14.281 14.281h-33.243c-7.887 0-14.281-6.394-14.281-14.281v-17.818z" fill="#878787"/><path d="m63.787 200.966c0 4.925-3.989 8.914-8.914 8.914s-8.914-3.989-8.914-8.914 3.989-8.914 8.914-8.914c4.924 0 8.914 3.989 8.914 8.914z" fill="#f8664f"/><path d="m106.121 200.966c0 4.925-3.989 8.914-8.914 8.914s-8.914-3.989-8.914-8.914 3.989-8.914 8.914-8.914 8.914 3.989 8.914 8.914z" fill="#f9e109"/><ellipse cx="77.887" cy="278.881" fill="#b37f59" rx="30.704" ry="30.704" transform="matrix(.707 -.707 .707 .707 -174.386 136.757)"/><ellipse cx="77.887" cy="374.146" fill="#b37f59" rx="30.704" ry="30.704" transform="matrix(.707 -.707 .707 .707 -241.749 164.66)"/><path d="m86.081 342.698v62.897c0 3.405-2.76 6.165-6.165 6.165h-4.058c-3.405 0-6.165-2.76-6.165-6.165v-62.897c0-3.405 2.76-6.165 6.165-6.165h4.058c3.405 0 6.165 2.76 6.165 6.165z" fill="#eef0ee"/><path d="m105.919 262.437-44.475 44.475c-2.408 2.408-6.311 2.408-8.718 0l-2.869-2.869c-2.408-2.408-2.408-6.311 0-8.718l44.475-44.475c2.408-2.408 6.311-2.408 8.718 0l2.869 2.869c2.407 2.407 2.407 6.311 0 8.718z" fill="#eef0ee"/><path d="m295.386 386.761c-31.501-.359-47.15-12.788-54.956-31.19-3.857-9.093-5.416-24.846-4.038-34.627 2.737-19.424 8.459-36.288 16.701-50.99 1.661-2.963 6.164-1.975 6.554 1.4 1.441 12.457 5.551 19.526 13.616 18.618 7.826-3.366 9.554-16.6 5.638-38.971-1.749-9.99-1.721-20.385 1.451-30.018 1.021-3.1 2.263-5.981 3.748-8.623 2.187-3.892 8.155-3.013 9.271 1.309 4.131 16.005 14.05 33.243 32.041 52.204 20.363 22.94 37.479 46.568 31.357 75.122-3.566 16.634-14.903 30.715-29.814 38.904-10.495 5.762-21.018 7.926-31.569 6.862z" fill="#f8664f"/><path d="m296.145 386.887c-16.357-.186-24.483-6.64-28.536-16.196-2.003-4.722-2.813-12.902-2.097-17.98 1.421-10.086 4.392-18.843 8.672-26.477.863-1.539 3.201-1.026 3.403.727.748 6.469 2.883 10.139 7.07 9.668 4.063-1.748 4.961-8.62 2.927-20.236-.908-5.187-.894-10.585.753-15.587.53-1.61 1.175-3.105 1.946-4.477 1.136-2.021 4.234-1.565 4.814.68 2.145 8.31 7.296 17.262 16.637 27.107 10.574 11.911 19.461 24.18 16.283 39.007-1.852 8.637-7.738 15.949-15.481 20.201-5.449 2.991-10.913 4.115-16.391 3.563z" fill="#f9e109"/></g><g><path d="m508.318 318.003c-1.796 0-3.251 1.456-3.251 3.252v8.975c0 1.796 1.456 3.252 3.251 3.252 1.796 0 3.252-1.456 3.252-3.252v-8.975c0-1.796-1.456-3.252-3.252-3.252z"/><path d="m508.318 344.067c-1.796 0-3.251 1.456-3.251 3.252v49.085c0 1.796 1.456 3.252 3.251 3.252 1.796 0 3.252-1.456 3.252-3.252v-49.085c0-1.796-1.456-3.252-3.252-3.252z"/><path d="m4.232 170.998c-1.786-.182-3.379 1.135-3.55 2.923-.388 4.012-.198 6.361-.249 13.71 0 1.796 1.456 3.251 3.252 3.251s3.252-1.456 3.252-3.251c.047-7.392-.128-9.497.218-13.082.172-1.788-1.136-3.378-2.923-3.551z"/><path d="m50.85 130.607c1.707-.098 3.05-1.514 3.05-3.246 0-1.901-1.669-3.414-3.582-3.236-18.498 1.812-34.759 12.752-43.499 29.262-.84 1.588-.234 3.555 1.353 4.396 1.602.847 3.561.221 4.396-1.353 7.698-14.548 22.003-24.194 38.282-25.823z"/><path d="m456.294 144.698h-400.585c-19.005 0-34.466 15.461-34.466 34.466v238.578c0 19.005 15.461 34.466 34.466 34.466h13.031v14.568c0 9.668 7.865 17.533 17.533 17.533h33.243c9.668 0 17.533-7.865 17.533-17.533v-14.568h237.907v14.568c0 9.668 7.865 17.533 17.53 17.533h33.244c9.668 0 17.533-7.865 17.533-17.533v-14.568h13.031c19.004 0 34.466-15.461 34.466-34.466v-238.578c0-19.005-15.462-34.466-34.466-34.466zm-325.749 322.078c0 6.081-4.948 11.03-11.03 11.03h-33.242c-6.081 0-11.03-4.948-11.03-11.03v-14.566h55.302zm306.215 0c0 6.081-4.948 11.03-11.03 11.03h-33.244c-6.081 0-11.027-4.948-11.027-11.03v-14.566h55.301zm47.497-49.034c0 15.419-12.544 27.963-27.963 27.963h-400.585c-15.419 0-27.963-12.544-27.963-27.963v-238.578c0-15.419 12.544-27.963 27.963-27.963h400.586c15.419 0 27.963 12.544 27.963 27.963v238.578z"/><path d="m450.599 166h-307.445c-10.398 0-18.859 8.46-18.859 18.859v227.188c0 10.398 8.46 18.859 18.859 18.859h307.445c10.4 0 18.859-8.46 18.859-18.859v-227.188c0-10.398-8.459-18.859-18.859-18.859zm-231.014 6.503h47.193v111.641c-1.651-2.197-3.173-6.128-3.988-13.165-.747-6.46-9.399-8.356-12.619-2.615-8.633 15.399-14.382 32.938-17.084 52.127-1.534 10.886.38 27.192 4.264 36.351 5.885 13.873 15.611 23.3 29.427 28.461v39.099h-47.193zm-6.503 251.899h-47.193v-251.899h47.193zm68.934-173.959c-1.849-10.564-1.4-20.133 1.336-28.441.965-2.934 2.141-5.642 3.495-8.047.748-1.322 2.899-.975 3.287.53 4.327 16.758 14.294 33.474 30.338 50.942v64.167c-2.077-2.674-4.275-5.246-6.467-7.716-8.52-8.977-13.702-17.378-15.849-25.682-.599-2.331-2.548-4.04-4.961-4.355-2.378-.32-4.672.826-5.835 2.897-.859 1.528-1.598 3.226-2.2 5.053-1.677 5.097-1.969 10.872-.866 17.163 2.149 12.283.338 15.565-.617 16.426-1.468-.285-2.459-2.563-2.949-6.793-.397-3.443-4.137-5.662-7.448-3.875v-29.492c.329-.032.629-.024 1.181-.26 9.387-4.036 11.858-17.944 7.555-42.517zm-15.239 83.81c-2.144 5.62-3.677 11.643-4.575 18.007-.737 5.248-.069 14.054 2.327 19.703.66 1.555 1.414 2.999 2.248 4.351v2.013c-10.917-4.68-18.586-12.581-23.44-24.025-3.438-8.102-5.183-23.171-3.812-32.904 2.59-18.388 8.079-35.161 16.541-49.944.948.188.681 16.611 10.711 20.886zm6.503 39.955v-38.638c.554-1.385 1.12-2.762 1.755-4.088 2.045 7.633 7.621 9.5 10.819 8.135 7.509-3.229 6.361-15.119 4.847-23.784-.917-5.227-.701-9.939.638-14.007.282-.86.602-1.679.955-2.448 2.634 8.876 8.205 17.714 16.923 26.896 4.649 5.239 8.483 10.082 11.256 14.815v30.889c-5.981 8.39-14.361 11.751-24.465 11.728-8.602-.02-17.815-2.785-22.728-9.498zm53.696-.235c1.943-3.133 3.361-6.557 4.136-10.168 1.929-9.005-.197-17.074-4.136-24.397v-66.699c20.372 23.743 31.63 43.801 26.525 67.605-3.154 14.712-12.784 27.638-26.525 35.76zm-30.547-161.113c-1.844-7.161-11.633-8.523-15.252-2.092-1.557 2.771-2.906 5.867-4.003 9.201-3.071 9.335-3.6 19.965-1.565 31.595 3.255 18.594 2.417 30.713-2.329 34.573v-113.634h47.193v83.106c-12.525-14.717-20.434-28.777-24.044-42.749zm-23.149 174.459c6.746 1.741 15.704 2.725 22.598 2.818 6.801.655 15.892-.35 24.595-3.701v37.967h-47.193zm53.696-3.822c17.799-9.232 29.249-24.859 32.886-41.819 6.339-29.576-11.635-56.186-32.886-78.804v-90.371h47.193v251.899h-47.193zm53.695-210.994h47.193v251.899h-47.193zm-249.873 239.544v-227.188c0-6.813 5.543-12.356 12.356-12.356h16.232v251.899h-16.232c-6.813 0-12.356-5.542-12.356-12.355zm332.157 0c0 6.813-5.543 12.356-12.356 12.356h-16.232v-251.9h16.232c6.813 0 12.356 5.543 12.356 12.356z"/><path d="m54.785 213.133c6.708 0 12.165-5.458 12.165-12.165s-5.458-12.165-12.165-12.165-12.165 5.458-12.165 12.165 5.458 12.165 12.165 12.165zm0-17.827c3.122 0 5.662 2.54 5.662 5.662s-2.54 5.662-5.662 5.662-5.662-2.54-5.662-5.662 2.54-5.662 5.662-5.662z"/><path d="m97.12 213.133c6.709 0 12.166-5.458 12.166-12.165s-5.458-12.165-12.166-12.165c-6.707 0-12.165 5.458-12.165 12.165s5.457 12.165 12.165 12.165zm0-17.827c3.123 0 5.663 2.54 5.663 5.662s-2.54 5.662-5.663 5.662c-3.122 0-5.662-2.54-5.662-5.662-.001-3.122 2.54-5.662 5.662-5.662z"/><path d="m89.194 342.187c-.272-4.95-4.348-8.904-9.365-8.904h-4.058c-5.016 0-9.091 3.953-9.365 8.901-13.395 4.755-22.56 17.559-22.56 31.963 0 14.405 9.165 27.208 22.56 31.963.273 4.949 4.348 8.903 9.365 8.903h4.058c5.017 0 9.093-3.955 9.365-8.906 13.401-4.757 22.57-17.557 22.57-31.96s-9.168-27.203-22.57-31.96zm-38.844 31.961c0-10.829 6.403-20.541 16.005-24.94v49.881c-9.602-4.4-16.005-14.112-16.005-24.941zm32.393 31.449c0 1.607-1.307 2.914-2.914 2.914h-4.058c-1.607 0-2.914-1.307-2.914-2.914v-62.898c0-1.607 1.307-2.914 2.914-2.914h4.058c1.607 0 2.914 1.307 2.914 2.914zm6.503-6.513v-49.872c9.608 4.399 16.015 14.108 16.015 24.936s-6.407 20.537-16.015 24.936z"/><path d="m108.132 251.422-2.87-2.87c-3.556-3.556-9.257-3.635-12.948-.301-4.541-2.143-9.495-3.331-14.52-3.331-18.718 0-33.946 15.239-33.946 33.971 0 5.038 1.19 9.978 3.338 14.482-3.487 3.829-3.196 9.493.286 12.97l2.868 2.869c3.463 3.465 9.108 3.781 12.951.302 4.537 2.138 9.485 3.323 14.504 3.323 18.732 0 33.971-15.229 33.971-33.947 0-5.034-1.192-9.982-3.342-14.507 3.471-3.821 3.194-9.477-.292-12.961zm-30.338.002c3.259 0 6.482.624 9.531 1.749l-35.223 35.223c-1.126-3.025-1.751-6.239-1.751-9.504-.001-15.147 12.31-27.468 27.443-27.468zm-22.856 53.191-2.869-2.87c-1.135-1.135-1.143-2.974 0-4.119l44.475-44.476c1.138-1.138 2.987-1.135 4.119 0l2.87 2.872c1.138 1.138 1.14 2.976 0 4.119l-44.475 44.474c-1.105 1.1-3.02 1.097-4.12 0zm22.856 1.72c-3.252 0-6.47-.623-9.515-1.745l35.225-35.225c1.13 3.039 1.757 6.261 1.757 9.527 0 15.131-12.321 27.443-27.467 27.443z"/><path d="m198.518 124.158 9.807-13.559c7.529-10.41 7.8-24.588.673-35.28-5.58-8.369-5.497-19.128.213-27.41l10.421-15.118c1.019-1.478.646-3.503-.832-4.523-1.48-1.022-3.504-.648-4.523.832l-10.421 15.118c-7.23 10.486-7.335 24.111-.269 34.71 5.628 8.442 5.415 19.64-.531 27.861l-9.807 13.559c-1.053 1.454-.727 3.488.729 4.539 1.449 1.048 3.485.731 4.54-.729z"/><path d="m258.824 124.158 9.805-13.559c7.529-10.412 7.801-24.591.673-35.28-5.581-8.369-5.497-19.128.213-27.41l10.423-15.118c1.019-1.478.648-3.503-.831-4.523-1.478-1.017-3.506-.648-4.524.832l-10.423 15.118c-7.228 10.487-7.335 24.112-.269 34.71 5.629 8.441 5.416 19.637-.531 27.861l-9.807 13.559c-1.053 1.454-.727 3.488.729 4.539 1.446 1.046 3.482.735 4.542-.729z"/><path d="m319.126 124.158 9.808-13.559c7.529-10.411 7.799-24.59.671-35.28-5.581-8.369-5.497-19.128.213-27.41l10.423-15.118c1.019-1.478.648-3.503-.831-4.523-1.478-1.017-3.506-.648-4.524.832l-10.423 15.118c-7.229 10.487-7.334 24.112-.269 34.71 5.629 8.442 5.416 19.639-.528 27.861l-9.808 13.559c-1.052 1.454-.727 3.488.729 4.539 1.462 1.056 3.492.721 4.539-.729z"/><path d="m379.432 124.158 9.805-13.559c7.529-10.412 7.801-24.591.673-35.28-5.581-8.369-5.497-19.128.213-27.41l10.423-15.118c1.019-1.478.648-3.503-.831-4.523-1.476-1.017-3.506-.648-4.524.832l-10.423 15.118c-7.23 10.487-7.334 24.112-.269 34.71 5.629 8.441 5.416 19.637-.531 27.861l-9.805 13.559c-1.052 1.454-.727 3.488.729 4.539 1.462 1.056 3.492.721 4.54-.729z"/></g></g></g></svg>