<svg id="Capa_1" enable-background="new 0 0 512 512" height="512" viewBox="0 0 512 512" width="512" xmlns="http://www.w3.org/2000/svg"><g><path d="m415.936 159.936c0-83.106-63.386-151.407-144.45-159.196-5.484-.527-11.075-.254-16.68.294-78.871 7.72-148.613 71.59-148.44 159.223.107 54.432 27.406 102.482 69.036 131.289 16.872 11.675 26.835 30.979 26.835 51.497v25.082l53.763 20.605 63.936-20.604v-24.996c0-20.59 10.076-39.889 27.004-51.611 41.689-28.867 68.996-77.036 68.996-131.583z" fill="#ffe177"/><path d="m196.007 291.547c-41.63-28.807-68.929-76.857-69.036-131.289-.164-82.84 63.524-151.692 144.515-159.517-5.484-.527-11.048-.777-16.68-.736-87.631.64-158.914 72.62-158.742 160.254.107 54.432 27.406 102.482 69.036 131.289 16.872 11.675 26.835 30.979 26.835 51.497v25.082l14.906 10.302 16-10.302v-25.082c.001-20.519-9.962-39.823-26.834-51.498z" fill="#ffd15b"/><g><path d="m271.943 375.728c-.575 0-1.16-.064-1.744-.199-4.158-.96-6.751-5.108-5.791-9.266l44.31-192.015-17.326 8.663c-2.177 1.089-4.739 1.088-6.917-.003l-28.482-14.269-28.608 14.275c-2.172 1.085-4.729 1.085-6.905-.003l-17.326-8.663 44.31 192.015c.96 4.158-1.633 8.306-5.791 9.266-4.157.957-8.307-1.633-9.266-5.791l-47.999-208c-.673-2.916.397-5.957 2.749-7.808s5.56-2.178 8.235-.84l28.548 14.274 28.611-14.277c2.175-1.086 4.735-1.084 6.911.006l28.478 14.268 28.54-14.27c2.677-1.339 5.884-1.012 8.235.84 2.351 1.851 3.422 4.892 2.749 7.808l-47.999 208c-.825 3.571-4.005 5.989-7.522 5.989z" fill="#ffc344"/></g><path d="m272 512h-3.857l-17.969-1.03c-17.638 0-31.936-13.268-31.936-30.906v-26.366h37.698l48 10.302v16.064c0 17.638-14.298 31.936-31.936 31.936z" fill="#b9acac"/><path d="m238.842 480.064v-16.064l-16.215-10.302-14.691 10.302v16.064c0 17.638 14.298 31.936 31.936 31.936h30.906c-17.638 0-31.936-14.298-31.936-31.936z" fill="#9e9797"/><path d="m335.94 375.213v17.06l-10.302 7.727 10.302 7.726v16.545l-10.302 7.788c0 2.637 9.983 5.213 9.375 7.665-3.431 13.938-16.009 24.271-31.009 24.271h-69.153l-16.682-1.03c-14.969 0-27.537-9.55-30.988-23.241-.618-2.431-.948-4.997-.948-7.665v-53.755l20.604-10.302h121.892c3.977 0 7.211 3.225 7.211 7.211z" fill="#e1d3ce"/><path d="m206.842 432.064v-64.064h-23.694c-3.983 0-7.211 3.229-7.211 7.211v17.062l10.301 7.727-10.302 7.726v16.547l10.302 7.791c0 2.641-9.981 5.208-9.377 7.662 3.432 13.937 16.014 24.274 31.011 24.274h30.906c-17.638 0-31.936-14.298-31.936-31.936z" fill="#cdbfba"/><g><path d="m335.94 392.273v15.453h-129.098l-20.609-7.726 20.609-7.727z" fill="#b9acac"/></g><g><path d="m335.94 424.271v7.788c0 2.637-.319 5.213-.927 7.665h-127.246s-21.534-4.997-21.534-7.665l20.608-7.788z" fill="#b9acac"/></g><path d="m175.936 392.274h30.906v15.453h-30.906z" fill="#9e9797"/><path d="m206.842 424.273h-30.906v7.791c0 2.641.321 5.207.925 7.662h30.906c-.605-2.455-.925-5.021-.925-7.662z" fill="#9e9797"/><g fill="#feb137"><circle cx="191.936" cy="144" r="16"/><circle cx="319.936" cy="144" r="16"/></g></g></svg>