<svg xmlns="http://www.w3.org/2000/svg" version="1.1" xmlns:xlink="http://www.w3.org/1999/xlink" xmlns:svgjs="http://svgjs.dev/svgjs" width="100%" height="100%" viewBox="0 0 1000 600"><rect width="1000" height="600" x="0" y="0" fill="#ffffff"/><g><circle r="166.66666666666666" cx="298.73452250162757" cy="320.95676171387356" fill="#f4a896" transform="matrix(0.9464829661950453,0,0,0.9464829661950453,0,-3.7801252875794944)"/><path d="M298.5617027438922 372.5038414086472L298.5617027438922 372.5038414086472Q284.3418208500871 372.5038414086472 275.2568963068227 367.17138569847026Q266.22134635346737 361.83892998829333 265.13510537546836 353.29712593402843L265.13510537546836 353.29712593402843L275.8000167958222 351.86526282666614Q276.14563892518555 356.5064742781164 282.21871348399816 359.1727021332049Q288.2424134529017 361.83892998829333 298.5617027438922 361.83892998829333L298.5617027438922 361.83892998829333Q321.32338869196224 361.83892998829333 321.32338869196224 351.86526282666614L321.32338869196224 351.86526282666614Q321.32338869196224 347.6190480944882 316.682177240512 344.21220139076405Q312.0409657890617 340.854729276949 299.9935658512545 337.2997588034977L299.9935658512545 337.2997588034977L281.82371676472576 331.96730309332077Q265.13510537546836 326.98046951250717 253.92707346611502 317.056176940789Q242.71904155676168 307.0825097791618 242.71904155676168 290.3938983899044L242.71904155676168 290.3938983899044Q242.71904155676168 277.5565050135525 250.02648086330043 267.6322124418344Q257.3339201698392 257.65854528020714 270.12193895628195 251.78296908103073Q282.9099577427248 245.95676747176336 298.5617027438922 245.95676747176336L298.5617027438922 245.95676747176336Q321.32338869196224 245.95676747176336 336.5801369738573 256.9673010214805Q351.88625984566147 267.9778345711977 354.00936721175043 285.40706480909074L354.00936721175043 285.40706480909074L343.34445579139657 286.44393119718075Q341.9125926840343 272.9646681520113 329.66769438659094 264.76848622710975Q317.3734214992386 256.6216788921172 298.5617027438922 256.6216788921172L298.5617027438922 256.6216788921172Q279.0093651399102 256.6216788921172 266.22134635346737 266.20034933447204Q253.38395297711554 275.7790197768269 253.38395297711554 290.3938983899044L253.38395297711554 290.3938983899044Q253.38395297711554 303.5275393057105 261.9257570313804 310.6374802526131Q270.46756108564534 317.7474211995156 286.11930608681274 322.3886326509659L286.11930608681274 322.3886326509659L305.6716436907948 328.0667104905062Q331.9883001123161 335.86789569613535 331.9883001123161 351.5196406973028L331.9883001123161 351.5196406973028Q331.9883001123161 361.49330785893005 322.9033755690517 366.9738873388341Q313.81845102578734 372.5038414086472 298.5617027438922 372.5038414086472ZM298.5617027438922 395.95677161544387L298.5617027438922 395.95677161544387Q275.10877253709555 395.95677161544387 259.6051513056553 384.9462380657267Q244.150904664124 373.9357045160095 242.02779729803504 356.5064742781164L242.02779729803504 356.5064742781164L252.69270871838887 355.0746111707541Q254.47019395511452 368.6032488058326 266.912590612194 376.9475545004613Q279.35498726927347 385.29186019509 298.5617027438922 385.29186019509L298.5617027438922 385.29186019509Q319.1509067359642 385.29186019509 331.9883001123161 375.8613135224623Q344.77631889875886 366.4307668498346 344.77631889875886 350.08777758994046L344.77631889875886 350.08777758994046Q344.77631889875886 336.95413667413436 336.5801369738573 328.7579547492328Q328.43332963886485 320.6111474142403 312.7815846376974 316.66118022151664L312.7815846376974 316.66118022151664L291.1061396676264 310.9831023819764Q279.0093651399102 307.7737540378884 272.59066845173425 302.984418816711Q266.22134635346737 298.1950835955336 266.22134635346737 290.3938983899044L266.22134635346737 290.3938983899044Q266.22134635346737 280.7658533576405 275.2568963068227 275.0877755181002Q284.3418208500871 269.40969767856 298.5617027438922 269.40969767856L298.5617027438922 269.40969767856Q311.6953436596983 269.40969767856 320.58276984332656 274.54465502910074Q329.4701960269548 279.72898696955053 330.55643700495375 287.87579430454304L330.55643700495375 287.87579430454304L320.2371477139633 289.3076574119054Q318.45966247723766 280.07460909891387 298.5617027438922 280.07460909891387L298.5617027438922 280.07460909891387Q288.58803558226504 280.07460909891387 282.71245938308857 282.7408369540023Q276.8862577738212 285.40706480909074 276.8862577738212 290.3938983899044L276.8862577738212 290.3938983899044Q276.8862577738212 293.5538721440833 280.7868503766358 295.87447786980846Q284.68744297945045 298.1950835955336 297.82108389525655 302.0956761983482L297.82108389525655 302.0956761983482L316.682177240512 307.42813190852513Q335.14827386649506 312.760587618702 345.3194393877584 323.0798769096926Q355.4412303191127 333.39916620068306 355.4412303191127 350.08777758994046L355.4412303191127 350.08777758994046Q355.4412303191127 371.4176004306482 339.5919869583091 383.7118733180005Q323.79211818741453 395.95677161544387 298.5617027438922 395.95677161544387Z " fill="#4c5be6" transform="matrix(0.9464829661950453,0,0,0.9464829661950453,0,-3.7801252875794944)"/><path d="M605.2684211887165 372.5038414086472L605.2684211887165 372.5038414086472Q591.0485392949113 372.5038414086472 581.9636147516469 367.17138569847026Q572.9280647982916 361.83892998829333 571.8418238202926 353.29712593402843L571.8418238202926 353.29712593402843L582.5067352406464 351.86526282666614Q582.8523573700097 356.5064742781164 588.9254319288224 359.1727021332049Q594.9491318977259 361.83892998829333 605.2684211887165 361.83892998829333L605.2684211887165 361.83892998829333Q628.0301071367865 361.83892998829333 628.0301071367865 351.86526282666614L628.0301071367865 351.86526282666614Q628.0301071367865 347.6190480944882 623.3888956853361 344.21220139076405Q618.7476842338858 340.854729276949 606.7002842960787 337.2997588034977L606.7002842960787 337.2997588034977L588.53043520955 331.96730309332077Q571.8418238202926 326.98046951250717 560.6337919109392 317.056176940789Q549.4257600015859 307.0825097791618 549.4257600015859 290.3938983899044L549.4257600015859 290.3938983899044Q549.4257600015859 277.5565050135525 556.7331993081247 267.6322124418344Q564.0406386146634 257.65854528020714 576.8286574011062 251.78296908103073Q589.616676187549 245.95676747176336 605.2684211887165 245.95676747176336L605.2684211887165 245.95676747176336Q628.0301071367865 245.95676747176336 643.2868554186815 256.9673010214805Q658.5929782904857 267.9778345711977 660.7160856565746 285.40706480909074L660.7160856565746 285.40706480909074L650.0511742362207 286.44393119718075Q648.6193111288585 272.9646681520113 636.3744128314152 264.76848622710975Q624.0801399440628 256.6216788921172 605.2684211887165 256.6216788921172L605.2684211887165 256.6216788921172Q585.7160835847344 256.6216788921172 572.9280647982916 266.20034933447204Q560.0906714219398 275.7790197768269 560.0906714219398 290.3938983899044L560.0906714219398 290.3938983899044Q560.0906714219398 303.5275393057105 568.6324754762046 310.6374802526131Q577.1742795304694 317.7474211995156 592.8260245316369 322.3886326509659L592.8260245316369 322.3886326509659L612.378362135619 328.0667104905062Q638.6950185571403 335.86789569613535 638.6950185571403 351.5196406973028L638.6950185571403 351.5196406973028Q638.6950185571403 361.49330785893005 629.6100940138759 366.9738873388341Q620.5251694706116 372.5038414086472 605.2684211887165 372.5038414086472ZM605.2684211887165 395.95677161544387L605.2684211887165 395.95677161544387Q581.8154909819198 395.95677161544387 566.3118697504794 384.9462380657267Q550.8576231089482 373.9357045160095 548.7345157428592 356.5064742781164L548.7345157428592 356.5064742781164L559.3994271632131 355.0746111707541Q561.1769123999388 368.6032488058326 573.6193090570182 376.9475545004613Q586.0617057140978 385.29186019509 605.2684211887165 385.29186019509L605.2684211887165 385.29186019509Q625.8576251807885 385.29186019509 638.6950185571403 375.8613135224623Q651.4830373435831 366.4307668498346 651.4830373435831 350.08777758994046L651.4830373435831 350.08777758994046Q651.4830373435831 336.95413667413436 643.2868554186815 328.7579547492328Q635.1400480836891 320.6111474142403 619.4883030825215 316.66118022151664L619.4883030825215 316.66118022151664L597.8128581124506 310.9831023819764Q585.7160835847344 307.7737540378884 579.2973868965585 302.984418816711Q572.9280647982916 298.1950835955336 572.9280647982916 290.3938983899044L572.9280647982916 290.3938983899044Q572.9280647982916 280.7658533576405 581.9636147516469 275.0877755181002Q591.0485392949113 269.40969767856 605.2684211887165 269.40969767856L605.2684211887165 269.40969767856Q618.4020621045225 269.40969767856 627.2894882881508 274.54465502910074Q636.176914471779 279.72898696955053 637.263155449778 287.87579430454304L637.263155449778 287.87579430454304L626.9438661587874 289.3076574119054Q625.1663809220618 280.07460909891387 605.2684211887165 280.07460909891387L605.2684211887165 280.07460909891387Q595.2947540270893 280.07460909891387 589.4191778279128 282.7408369540023Q583.5929762186454 285.40706480909074 583.5929762186454 290.3938983899044L583.5929762186454 290.3938983899044Q583.5929762186454 293.5538721440833 587.49356882146 295.87447786980846Q591.3941614242747 298.1950835955336 604.5278023400808 302.0956761983482L604.5278023400808 302.0956761983482L623.3888956853361 307.42813190852513Q641.8549923113192 312.760587618702 652.0261578325826 323.0798769096926Q662.1479487639369 333.39916620068306 662.1479487639369 350.08777758994046L662.1479487639369 350.08777758994046Q662.1479487639369 371.4176004306482 646.2987054031333 383.7118733180005Q630.4988366322387 395.95677161544387 605.2684211887165 395.95677161544387ZM795.45934151836 392.40180114199256L710.4856722848926 392.40180114199256L710.4856722848926 249.51173794521463L795.45934151836 249.51173794521463L795.45934151836 260.17664936556844L721.1505837052464 260.17664936556844L721.1505837052464 272.9646681520113L795.45934151836 272.9646681520113L795.45934151836 283.6295795723651L721.1505837052464 283.6295795723651L721.1505837052464 303.8731614350738L784.0538112493705 303.8731614350738L784.0538112493705 314.5380728554277L721.1505837052464 314.5380728554277L721.1505837052464 327.3260916418705L784.0538112493705 327.3260916418705L784.0538112493705 337.9910030622243L721.1505837052464 337.9910030622243L721.1505837052464 358.2839595148421L795.45934151836 358.2839595148421L795.45934151836 368.9488709351959L721.1505837052464 368.9488709351959L721.1505837052464 381.7368897216387L795.45934151836 381.7368897216387L795.45934151836 392.40180114199256ZM697.6976534984498 392.40180114199256L687.0327420780959 392.40180114199256L687.0327420780959 249.51173794521463L697.6976534984498 249.51173794521463L697.6976534984498 392.40180114199256ZM924.4751449506962 392.40180114199256L839.5508503071378 392.40180114199256L839.5508503071378 249.51173794521463L924.4751449506962 249.51173794521463L924.4751449506962 260.17664936556844L850.2157617274916 260.17664936556844L850.2157617274916 272.9646681520113L924.4751449506962 272.9646681520113L924.4751449506962 283.6295795723651L850.2157617274916 283.6295795723651L850.2157617274916 303.8731614350738L913.1189892716156 303.8731614350738L913.1189892716156 314.5380728554277L850.2157617274916 314.5380728554277L850.2157617274916 327.3260916418705L913.1189892716156 327.3260916418705L913.1189892716156 337.9910030622243L850.2157617274916 337.9910030622243L850.2157617274916 358.2839595148421L924.4751449506962 358.2839595148421L924.4751449506962 368.9488709351959L850.2157617274916 368.9488709351959L850.2157617274916 381.7368897216387L924.4751449506962 381.7368897216387L924.4751449506962 392.40180114199256ZM826.7134569307859 392.40180114199256L816.0485455104321 392.40180114199256L816.0485455104321 249.51173794521463L826.7134569307859 249.51173794521463L826.7134569307859 392.40180114199256Z " fill="#4c5be6" transform="matrix(0.9464829661950453,0,0,0.9464829661950453,0,-3.7801252875794944)"/></g></svg>