<svg id="Layer_1" enable-background="new 0 0 512 512" height="512" viewBox="0 0 512 512" width="512" xmlns="http://www.w3.org/2000/svg"><g><g><path d="m232 344h176v48h-176z" fill="#50a2fa"/></g><g><path d="m192 136h248v224h-248z" fill="#73b5fb"/></g><g><path d="m462.028 359.792h-22.028v-223.584h22.028c23.18 0 41.972 18.791 41.972 41.972v139.641c0 23.18-18.791 41.971-41.972 41.971z" fill="#bb3422"/></g><g><path d="m320 136h-112v-29.943c0-9.973 8.084-18.057 18.057-18.057h75.887c9.972 0 18.056 8.084 18.056 18.057z" fill="#fdffa1"/></g><g><path d="m448 424h-256v-11.83c0-11.139 9.03-20.17 20.17-20.17h215.66c11.139 0 20.17 9.03 20.17 20.17z" fill="#73b5fb"/></g><g><path d="m67.981 360h56.038c11.035 0 19.981-8.946 19.981-19.981v-184.038c0-11.035-8.946-19.981-19.981-19.981h-56.038c-11.035 0-19.981 8.946-19.981 19.981v184.038c0 11.035 8.946 19.981 19.981 19.981z" fill="#fa452d"/></g><g><path d="m144 160h48v176h-48z" fill="#bb3422"/></g><g><path d="m72 96h48v40h-48z" fill="#fdffa1"/></g><g><path d="m8 200h40v88h-40z" fill="#fdffa1"/></g></g><g><path d="m462.028 128.208h-20.241c-.575-.132-1.172-.208-1.787-.208h-112v-21.943c0-14.368-11.689-26.057-26.057-26.057h-75.887c-14.367 0-26.056 11.689-26.056 26.057v21.943h-8c-4.418 0-8 3.582-8 8v16h-32.288c-1.753-12.248-11.464-21.959-23.712-23.712v-32.288c0-4.418-3.582-8-8-8h-48c-4.418 0-8 3.582-8 8v32.288c-13.549 1.939-24 13.616-24 27.693v36.019h-32c-4.418 0-8 3.582-8 8v88c0 4.418 3.582 8 8 8h32v44.019c0 15.429 12.552 27.981 27.981 27.981h56.038c14.077 0 25.754-10.451 27.693-24h32.288v16c0 4.418 3.582 8 8 8h32v16h-11.83c-15.533 0-28.17 12.637-28.17 28.17v11.83c0 4.418 3.582 8 8 8h256c4.418 0 8-3.582 8-8v-11.83c0-15.533-12.637-28.17-28.17-28.17h-11.83v-16h24c.615 0 1.212-.076 1.787-.208h20.241c27.555 0 49.972-22.417 49.972-49.972v-139.641c0-27.554-22.417-49.971-49.972-49.971zm-246.028-22.151c0-5.546 4.511-10.057 10.057-10.057h75.887c5.545 0 10.057 4.511 10.057 10.057v21.943h-96v-21.943zm-136-2.057h32v24h-32zm-64 176v-72h24v72zm120 60.019c0 6.606-5.375 11.981-11.981 11.981h-56.038c-6.606 0-11.981-5.375-11.981-11.981v-52.019-88-44.019c0-6.606 5.375-11.981 11.981-11.981h4.019 48 4.019c6.606 0 11.981 5.375 11.981 11.981v4.019 176zm16-12.019v-160h32v160zm288 84.17v3.83h-240v-3.83c0-6.71 5.459-12.17 12.17-12.17h19.83 176 19.83c6.711 0 12.17 5.459 12.17 12.17zm-200-28.17v-32h160v32zm168-48h-176c-4.418 0-8 3.582-8 8v8h-24v-16-176-16h8 112 112v208h-16v-8c0-4.418-3.582-8-8-8zm88-18.179c0 18.732-15.24 33.972-33.972 33.972h-14.028v-207.585h14.028c18.732 0 33.972 15.24 33.972 33.972z"/><path d="m400 176h-160c-4.418 0-8 3.582-8 8s3.582 8 8 8h160c4.418 0 8-3.582 8-8s-3.582-8-8-8z"/><path d="m400 208h-160c-4.418 0-8 3.582-8 8s3.582 8 8 8h160c4.418 0 8-3.582 8-8s-3.582-8-8-8z"/><path d="m400 272h-160c-4.418 0-8 3.582-8 8s3.582 8 8 8h160c4.418 0 8-3.582 8-8s-3.582-8-8-8z"/><path d="m400 304h-160c-4.418 0-8 3.582-8 8s3.582 8 8 8h160c4.418 0 8-3.582 8-8s-3.582-8-8-8z"/><path d="m400 240h-160c-4.418 0-8 3.582-8 8s3.582 8 8 8h160c4.418 0 8-3.582 8-8s-3.582-8-8-8z"/></g></svg>