<?xml version="1.0" encoding="iso-8859-1"?>
<!-- Generator: Adobe Illustrator 19.0.0, SVG Export Plug-In . SVG Version: 6.00 Build 0)  -->
<svg xmlns="http://www.w3.org/2000/svg" xmlns:xlink="http://www.w3.org/1999/xlink" version="1.1" id="Layer_1" x="0px" y="0px" viewBox="0 0 512 512" style="enable-background:new 0 0 512 512;" xml:space="preserve" width="512" height="512">
<g id="XMLID_467_">
	<path id="XMLID_469_" style="fill:#568AB1;" d="M395.765,13.743v161.769c0,8.365-6.779,15.144-15.144,15.144H131.379   c-8.365,0-15.144-6.779-15.144-15.144V13.743C116.235,6.15,122.386,0,129.978,0h252.044C389.615,0,395.765,6.15,395.765,13.743z"/>
	<path id="XMLID_470_" style="fill:#4173A0;" d="M395.765,13.743v161.769c0,8.365-6.779,15.144-15.144,15.144h-33.038   c8.365,0,15.144-6.779,15.144-15.144V13.743C362.727,6.15,356.577,0,348.984,0h33.038C389.615,0,395.765,6.15,395.765,13.743z"/>
	<path id="XMLID_471_" style="fill:#52D6FF;" d="M155.032,92.191v98.465h-23.653c-8.365,0-15.144-6.779-15.144-15.144V46.193   l33.707,33.708C153.198,83.156,155.032,87.586,155.032,92.191z"/>
	<path id="XMLID_472_" style="fill:#C4E7E5;" d="M116.233,204.975v265.071c0,8.355,6.773,15.129,15.129,15.129h249.277   c8.355,0,15.129-6.773,15.129-15.129V204.975c0-8.364-6.78-15.144-15.144-15.144H131.376   C123.013,189.831,116.233,196.611,116.233,204.975z"/>
	<path id="XMLID_473_" style="fill:#ACC6C4;" d="M395.765,204.975v265.066c0,8.365-6.779,15.133-15.133,15.133h-31.348   c8.355,0,15.133-6.768,15.133-15.133V204.975c0-6.634-4.265-12.269-10.209-14.319c-0.278-0.093-0.556-0.185-0.845-0.268   c-1.298-0.361-2.668-0.556-4.08-0.556h31.348c1.411,0,2.781,0.196,4.08,0.556c0.288,0.082,0.567,0.175,0.845,0.268   C391.5,192.706,395.765,198.341,395.765,204.975z"/>
	<path id="XMLID_474_" style="fill:#4173A0;" d="M370.275,512h-228.55c-5.69,0-10.302-4.612-10.302-10.302v-16.524h249.154v16.524   C380.577,507.388,375.965,512,370.275,512z"/>
	<path id="XMLID_475_" style="fill:#31A7FF;" d="M155.032,189.831v140.473c0,4.612-1.832,9.036-5.094,12.297l-33.703,33.703V204.975   c0-6.943,4.677-12.795,11.054-14.587c1.298-0.361,2.668-0.556,4.08-0.556H155.032z"/>
	<g id="XMLID_477_">
		<path id="XMLID_479_" style="fill:#96B5B2;" d="M349.283,236.732h-19.797c-4.267,0-7.726-3.459-7.726-7.726    c0-4.268,3.459-7.726,7.726-7.726h19.797c4.267,0,7.726,3.459,7.726,7.726C357.009,233.274,353.55,236.732,349.283,236.732z"/>
	</g>
</g>















</svg>
