<?xml version="1.0" encoding="iso-8859-1"?>
<!-- Generator: Adobe Illustrator 19.0.0, SVG Export Plug-In . SVG Version: 6.00 Build 0)  -->
<svg version="1.1" id="Capa_1" xmlns="http://www.w3.org/2000/svg" xmlns:xlink="http://www.w3.org/1999/xlink" x="0px" y="0px"
	 viewBox="0 0 512 512" style="enable-background:new 0 0 512 512;" xml:space="preserve">
<g>
	<g>
		<path d="M379.96,56.93c-1.86-1.86-4.44-2.93-7.07-2.93c-2.64,0-5.21,1.07-7.07,2.93c-1.86,1.86-2.93,4.44-2.93,7.07
			s1.07,5.21,2.93,7.07s4.44,2.93,7.07,2.93s5.21-1.07,7.07-2.93c1.86-1.86,2.93-4.44,2.93-7.07S381.82,58.79,379.96,56.93z"/>
	</g>
</g>
<g>
	<g>
		<path d="M330.138,54H30C13.458,54,0,67.458,0,84v256c0,16.542,13.458,30,30,30h27c5.523,0,10-4.478,10-10c0-5.522-4.477-10-10-10
			H30c-5.514,0-10-4.486-10-10V84c0-5.514,4.486-10,10-10h300.138c5.523,0,10-4.477,10-10S335.661,54,330.138,54z"/>
	</g>
</g>
<g>
	<g>
		<path d="M108.38,352.93c-1.86-1.86-4.43-2.93-7.07-2.93c-2.63,0-5.21,1.069-7.07,2.93c-1.86,1.86-2.93,4.44-2.93,7.07
			s1.07,5.21,2.93,7.069c1.86,1.86,4.44,2.931,7.07,2.931s5.21-1.07,7.07-2.931c1.86-1.859,2.93-4.439,2.93-7.069
			S110.24,354.79,108.38,352.93z"/>
	</g>
</g>
<g>
	<g>
		<path d="M482,54h-71.667c-5.523,0-10,4.477-10,10s4.477,10,10,10H482c5.514,0,10,4.486,10,10v256c0,5.514-4.486,10-10,10H140.333
			c-5.523,0-10,4.478-10,10c0,5.522,4.477,10,10,10H215.5v32.575l-46.25,30.081c-5.16,3.355-7.451,9.576-5.701,15.478
			c1.75,5.901,7.062,9.866,13.217,9.866h158.467c6.155,0,11.467-3.965,13.217-9.866s-0.541-12.122-5.701-15.478l-46.25-30.081V370
			H482c16.542,0,30-13.458,30-30V84C512,67.458,498.542,54,482,54z M314.284,438H197.716l33.236-21.617
			c2.836-1.845,4.548-4.999,4.548-8.383v-38h41v38c0,3.384,1.711,6.538,4.548,8.383L314.284,438z"/>
	</g>
</g>
<g>
	<g>
		<path d="M303.331,252.037l-31.526-72c-1.612-3.683-5.266-6.018-9.294-5.989c-4.021,0.054-7.617,2.51-9.13,6.235l-29.248,72
			c-2.079,5.117,0.384,10.95,5.501,13.029c1.233,0.5,2.507,0.737,3.76,0.737c3.949,0,7.69-2.354,9.268-6.239l20.328-50.042
			l22.02,50.291c2.214,5.058,8.11,7.363,13.171,5.149C303.24,262.992,305.546,257.096,303.331,252.037z"/>
	</g>
</g>
<g>
	<g>
		<path d="M354.28,230.047h0.607c15.439,0,28-12.561,28-28c0-15.439-12.561-28-28-28h-24.75c-5.522,0-9.999,4.477-9.999,10v36v36
			c0,5.523,4.477,10,10,10s10-4.477,10-10V244.19l19.008,19.008c1.953,1.952,4.512,2.929,7.071,2.929s5.119-0.977,7.071-2.929
			c3.905-3.905,3.905-10.237,0-14.143L354.28,230.047z M340.138,194.047h14.75c4.411,0,8,3.589,8,8s-3.589,8-8,8h-14.75V194.047z"/>
	</g>
</g>
<g>
	<g>
		<path d="M83.313,210.047H82c-4.411,0-8-3.589-8-8s3.589-8,8-8h9.063c5.523,0,10-4.477,10-10s-4.477-10-10-10H82
			c-15.439,0-28,12.561-28,28c0,15.439,12.561,28,28,28h1.313c4.411,0,8,3.589,8,8s-3.589,8-8,8H64c-5.523,0-10,4.477-10,10
			s4.477,10,10,10h19.313c15.439,0,28-12.56,28-28S98.752,210.047,83.313,210.047z"/>
	</g>
</g>
<g>
	<g>
		<path d="M197.342,174.821c-3.72-1.556-8.011-0.724-10.882,2.109l-22.695,22.4l-22.695-22.4c-2.871-2.833-7.163-3.665-10.882-2.109
			c-3.721,1.555-6.143,5.193-6.143,9.226v72c0,5.523,4.477,10,10,10s10-4.477,10-10v-48.08l12.695,12.53
			c3.895,3.844,10.155,3.844,14.05,0l12.695-12.53v48.08c0,5.523,4.477,10,10,10s10-4.477,10-10v-72
			C203.485,180.014,201.063,176.376,197.342,174.821z"/>
	</g>
</g>
<g>
	<g>
		<path d="M446.333,174.047h-36c-5.523,0-10,4.477-10,10s4.477,10,10,10h8v60.978c0,5.523,4.478,10,10,10c5.523,0,10-4.478,10-10
			v-60.978h8c5.523,0,10-4.477,10-10S451.856,174.047,446.333,174.047z"/>
	</g>
</g>
<g>
</g>
<g>
</g>
<g>
</g>
<g>
</g>
<g>
</g>
<g>
</g>
<g>
</g>
<g>
</g>
<g>
</g>
<g>
</g>
<g>
</g>
<g>
</g>
<g>
</g>
<g>
</g>
<g>
</g>
</svg>
