<svg id="Capa_1" enable-background="new 0 0 511.915 511.915" height="512" viewBox="0 0 511.915 511.915" width="512" xmlns="http://www.w3.org/2000/svg"><path d="m58.477 451.695-2.126 38.982c-.626 11.476 13.241 17.668 21.368 9.541l38.749-38.749" fill="#5e6b75"/><path d="m453.448 451.695 2.126 38.982c.626 11.476-13.241 17.668-21.368 9.541l-38.749-38.749" fill="#5e6b75"/><path d="m469.622 459.712c-142.44 11.011-284.88 11.011-427.32 0-12.864-.994-23.216-10.934-24.815-23.737-13.366-107.013-13.366-214.026 0-321.039 1.599-12.803 11.951-22.743 24.815-23.737 142.44-11.011 284.88-11.011 427.32 0 12.864.994 23.216 10.934 24.815 23.737 13.366 107.013 13.366 214.026 0 321.039-1.599 12.803-11.95 22.743-24.815 23.737z" fill="#da4a54"/><path d="m454.802 409.302c-1.33 10.67-9.96 18.96-20.69 19.79-46.2 3.57-92.39 5.76-138.58 6.54-51.84.89-103.7.04-155.54-2.58-12.19-.61-24.37-1.32-36.56-2.13-8.54-.56-17.08-1.17-25.62-1.83-10.73-.83-19.36-9.12-20.69-19.79-11.15-89.23-11.15-178.46 0-267.69 1.33-10.67 9.96-18.96 20.69-19.79 118.77-9.18 237.53-9.18 356.3 0 10.73.83 19.36 9.12 20.69 19.79 11.15 89.23 11.15 178.46 0 267.69z" fill="#9373b9"/><path d="m454.802 409.302c-1.33 10.67-9.96 18.96-20.69 19.79-3.17.25-6.34.48-9.51.71 2.21-3.16 3.68-6.87 4.19-10.91 11.95-95.62 11.95-191.25 0-286.87-.51-4.04-1.98-7.75-4.19-10.91 3.17.23 6.34.46 9.51.71 10.73.83 19.36 9.12 20.69 19.79 11.15 89.23 11.15 178.46 0 267.69z" fill="#b9a0d3"/><path d="m92.779 275.04c-10.893-37.833-22.86-100.872 26.61-117.625s78.299-10.635 81.964-1.788c1.818 4.379-7.756 9.574-7.756 9.574s81.286-21.847 92.558 0c7.312 14.181-17.558 12.957-17.558 12.957s65.432 10.692 65.432 27.929c0 13.563-43.028 11.583-43.028 11.583" fill="#5e6b75"/><path d="m152.992 217.712c6.43 4.097-.66 22.069-12.459 43.507l-47.755 13.821c-10.887-37.833-22.86-100.872 26.61-117.625 18.212-6.167 34.132-9.334 46.969-10.39-29.519 17.3-30.869 59.523-13.365 70.687z" fill="#4d5961"/><path d="m295.532 435.632c-64.03 1.1-128.07-.46-192.1-4.71.04-.91.08-1.83.13-2.74 1.42-27.65 23.54-49.65 51.2-50.96 29.74-1.4 59.49-1.4 89.24 0 27.65 1.31 49.77 23.31 51.19 50.96.13 2.48.24 4.97.34 7.45z" fill="#f1d333"/><path d="m199.382 376.172c-9.2 0-18.39.35-27.59 1.05-17.11 1.31-30.78 23.31-31.66 50.96-.05 1.62-.1 3.25-.14 4.87-12.19-.61-24.37-1.32-36.56-2.13.04-.91.08-1.83.13-2.74 1.42-27.65 23.54-49.65 51.2-50.96 14.87-.7 29.74-1.05 44.62-1.05z" fill="#e7a52e"/><path d="m295.832 314.505h.135c11.599 0 20.997-9.406 20.997-20.997 0-11.599-9.398-21.005-20.997-21.005-.151 0-.302 0-.453.008h-192.274c-.151-.008-.302-.008-.453-.008-11.599 0-20.997 9.406-20.997 21.005 0 11.591 9.398 20.997 20.997 20.997h.135" fill="#f1b986"/><path d="m291.002 217.67c-61.083-5.922-122.166-5.922-183.249 0-4.74 37.979-6.136 75.958-4.188 113.938 1.418 27.647 23.541 49.653 51.193 50.958 29.747 1.404 59.493 1.404 89.24 0 27.652-1.306 49.775-23.311 51.193-50.958 1.947-37.98.551-75.959-4.189-113.938z" fill="#f1d0a5"/><path d="m107.756 217.664c30.536-2.962 61.082-4.438 91.627-4.438-15.464 0-30.928 1.494-46.392 4.483-2.406 38.346-3.107 76.691-2.123 115.028.647 25.233 9.869 45.809 21.97 50.502-6.023-.164-12.056-.392-18.079-.674-27.648-1.303-49.773-23.31-51.194-50.958-1.942-37.981-.548-75.962 4.191-113.943z" fill="#f1b986"/><path d="m395.248 219.956 8.032 16.274c.958 1.942 2.81 3.287 4.953 3.599l17.959 2.61c5.396.784 7.55 7.415 3.646 11.221l-12.995 12.667c-1.55 1.511-2.258 3.689-1.892 5.823l3.068 17.887c.922 5.374-4.719 9.472-9.545 6.935l-16.063-8.445c-1.916-1.008-4.206-1.008-6.122 0l-16.063 8.445c-4.826 2.537-10.467-1.561-9.545-6.935l3.068-17.887c.366-2.134-.341-4.311-1.892-5.823l-12.995-12.667c-3.904-3.806-1.75-10.437 3.646-11.221l17.959-2.61c2.143-.311 3.995-1.657 4.953-3.599l8.032-16.274c2.411-4.889 9.383-4.889 11.796 0z" fill="#f1d333"/><path d="m501.884 114.002c-2.036-16.287-15.362-29.021-31.684-30.277-57.29-4.428-114.905-7.069-172.583-7.928l50.988-63.08c2.604-3.221 2.103-7.944-1.118-10.547-3.222-2.604-7.943-2.104-10.548 1.118l-58.436 72.293c-15.027-.121-30.056-.121-45.083 0l-58.435-72.293c-2.605-3.222-7.328-3.722-10.548-1.118-3.221 2.604-3.722 7.326-1.118 10.547l50.988 63.08c-57.677.859-115.292 3.5-172.581 7.928-16.324 1.257-29.65 13.99-31.687 30.278-12.126 97.118-13.273 195.646-3.408 292.847.418 4.121 4.104 7.122 8.219 6.704 4.121-.418 7.123-4.098 6.705-8.219-9.751-96.08-8.617-193.473 3.37-289.472 1.156-9.244 8.707-16.471 17.956-17.183 141.392-10.929 284.773-10.929 426.166 0 9.248.712 16.798 7.938 17.953 17.181 13.22 105.902 13.22 213.29 0 319.181-1.155 9.25-8.706 16.48-17.956 17.192-141.391 10.929-284.773 10.929-426.166 0-9.238-.711-16.782-7.928-17.95-17.164-.409-3.756-3.591-6.678-7.456-6.678-4.142 0-7.5 3.358-7.5 7.5 0 .312.021.641.062.963.002.016.004.031.006.047 2.035 16.293 15.361 29.031 31.684 30.288 2.785.215 5.573.419 8.36.626l-1.22 22.445c-.459 8.357 4.182 15.965 11.823 19.381 2.664 1.191 5.462 1.771 8.23 1.771 5.177 0 10.246-2.03 14.108-5.887l33.58-33.579c46.36 2.319 92.853 3.485 139.358 3.485 46.492 0 92.994-1.167 139.356-3.486l33.583 33.583c3.86 3.855 8.927 5.884 14.104 5.884 2.768 0 5.567-.58 8.231-1.771 7.641-3.416 12.282-11.024 11.823-19.377l-1.22-22.45c2.786-.207 5.573-.41 8.357-.625 16.325-1.257 29.651-13.995 31.687-30.289 13.374-107.124 13.374-215.763 0-322.899zm-429.462 380.914c-2.211 2.208-4.662 1.458-5.613 1.033-.949-.424-3.139-1.748-2.968-4.869l1.206-22.192c10.465.719 20.939 1.383 31.42 1.983zm375.661-3.833c.171 3.117-2.019 4.441-2.968 4.865-.952.425-3.402 1.175-5.61-1.029l-24.049-24.049c10.483-.601 20.956-1.264 31.421-1.983z"/><path d="m199.377 354.829c8.935 0 17.183-5.216 21.014-13.289 1.776-3.742.182-8.216-3.561-9.991-3.741-1.777-8.215-.181-9.991 3.56-1.361 2.867-4.29 4.72-7.462 4.72s-6.102-1.853-7.462-4.72c-1.776-3.742-6.249-5.336-9.991-3.56s-5.336 6.249-3.561 9.991c3.831 8.072 12.08 13.289 21.014 13.289z"/><path d="m154.667 273.07c-4.847 0-8.791 5.86-8.791 13.062s3.944 13.062 8.791 13.062c4.848 0 8.792-5.859 8.792-13.062s-3.944-13.062-8.792-13.062z"/><path d="m244.088 273.07c-4.848 0-8.792 5.86-8.792 13.062s3.944 13.062 8.792 13.062c4.847 0 8.791-5.859 8.791-13.062s-3.944-13.062-8.791-13.062z"/><path d="m462.244 140.685c-1.765-14.164-13.353-25.242-27.552-26.34-15.572-1.208-31.499-2.274-47.336-3.17-4.134-.23-7.678 2.928-7.912 7.064-.234 4.135 2.929 7.678 7.064 7.912 15.734.89 31.555 1.95 47.025 3.149 7.124.551 12.939 6.119 13.826 13.242 11.021 88.196 11.021 177.634 0 265.832-.887 7.121-6.702 12.689-13.825 13.24-43.56 3.366-87.534 5.495-130.843 6.368-.003-.061-.005-.123-.008-.184-1.018-19.858-11.269-37.376-27.209-47.907 15.654-10.399 26.177-27.8 27.208-47.9.186-3.629.332-7.264.457-10.902 12.254-3.188 21.327-14.345 21.327-27.583 0-13.393-9.285-24.652-21.753-27.692-.672-13.528-1.76-27.045-3.261-40.507 11.803-.125 29.778-1.626 37.586-9.083 2.938-2.807 4.492-6.313 4.492-10.14 0-11.175-12.104-19.952-38.093-27.622-3.314-.978-6.618-1.869-9.788-2.668 1.39-2.844 2.458-7.663-.829-14.035-6.356-12.321-25.361-16.31-58.105-12.195-9.463 1.189-18.599 2.866-26.004 4.41-.116-.405-.258-.811-.427-1.22-6.023-14.541-39.318-20.05-91.299-2.446-24.457 8.283-38.638 28.134-41.011 57.406-1.439 17.754 1.233 38.82 8.162 64.268-6.024 5.23-9.844 12.936-9.844 21.523 0 13.238 9.073 24.395 21.327 27.583.125 3.638.271 7.273.457 10.902 1.031 20.102 11.556 37.504 27.212 47.903-14.635 9.671-24.469 25.218-26.766 43.037-6.044-.417-12.107-.851-18.129-1.316-7.124-.551-12.938-6.119-13.827-13.242-11.021-88.196-11.021-177.634 0-265.832.888-7.121 6.702-12.689 13.825-13.24 92.377-7.137 185.999-8.7 278.263-4.645 4.118.192 7.64-3.025 7.822-7.163s-3.025-7.64-7.164-7.822c-92.865-4.082-187.097-2.509-280.077 4.675-14.2 1.098-25.788 12.176-27.554 26.338-11.175 89.43-11.175 180.12 0 269.547 1.766 14.164 13.354 25.241 27.555 26.34 8.542.66 17.191 1.278 25.7 1.836 12.19.81 24.532 1.529 36.679 2.137 38.547 1.948 77.578 2.927 116.497 2.927 13.202 0 26.397-.113 39.548-.339 45.952-.776 92.729-2.983 139.032-6.561 14.201-1.098 25.789-12.176 27.554-26.338 11.174-89.43 11.174-180.119-.002-269.547zm-152.78 152.822c0 4.656-2.37 8.768-5.966 11.195.07-7.493.014-14.996-.173-22.502 3.691 2.413 6.139 6.577 6.139 11.307zm-214.208 11.195c-3.596-2.427-5.966-6.54-5.966-11.195 0-4.731 2.449-8.894 6.139-11.307-.187 7.506-.243 15.01-.173 22.502zm5.054-87.961c-1.768 14.17-3.075 28.414-3.922 42.678-4.807-19.857-6.602-36.471-5.466-50.49 1.904-23.493 12.002-38.02 30.872-44.41 40.262-13.636 63.212-10.582 70.444-7.341-.71.521-1.496 1.033-2.219 1.431-3.342 1.814-4.798 5.842-3.388 9.373 1.41 3.532 5.24 5.45 8.912 4.462.198-.053 20.065-5.358 41.041-7.994 28.243-3.549 40.764.039 42.904 4.188.114.221.203.414.272.578-2.01.944-6.844 1.627-10.795 1.45-3.976-.198-7.408 2.745-7.827 6.701s2.323 7.551 6.249 8.192c.147.024 14.94 2.463 30.09 6.795 22.548 6.447 27.731 11.852 28.806 13.408-3.725 2.969-19.919 5.079-34.792 4.422-61.202-5.918-123.262-5.912-184.461.021-3.494.338-6.285 3.054-6.72 6.536zm91.673 210.82c-17.265-.479-34.491-1.134-51.615-2-9.548-.478-19.212-1.027-28.833-1.633 2.463-16.393 13.385-30.095 28.976-36.123 4.442 1.25 9.09 2.025 13.893 2.252 12.473.589 25.02.917 37.579 1.013zm-36.872-52.487c-23.892-1.128-42.833-19.979-44.057-43.851-.685-13.356-.962-29.654-.035-64.346.695-14.13 1.837-28.25 3.458-42.305 56.37-5.098 113.429-5.098 169.799 0 1.668 14.459 3.087 28.978 3.526 43.526.475 15.774.632 48.807-.102 63.125-1.224 23.871-20.165 42.723-44.057 43.851-29.372 1.387-59.159 1.387-88.532 0zm51.872 52.853v-36.858c12.488-.099 24.965-.426 37.368-1.012 4.804-.227 9.454-1.002 13.896-2.253 16.93 6.536 28.363 22.138 29.432 40.429-26.834.369-53.794.266-80.696-.306z"/><path d="m438.635 244.597c-1.668-5.134-6.023-8.805-11.365-9.581l-17.479-2.54-7.817-15.84c-2.389-4.841-7.227-7.848-12.625-7.848s-10.235 3.007-12.625 7.848l-7.817 15.84-17.479 2.54c-5.342.776-9.697 4.448-11.365 9.581-1.668 5.134-.303 10.664 3.563 14.432l12.648 12.329-2.986 17.41c-.912 5.32 1.234 10.596 5.601 13.769 4.367 3.172 10.047 3.583 14.826 1.071l15.634-8.219 15.635 8.22c2.078 1.093 4.327 1.632 6.564 1.632 2.906 0 5.794-.911 8.261-2.704 4.367-3.173 6.513-8.449 5.601-13.77l-2.986-17.409 12.648-12.329c3.866-3.768 5.231-9.298 3.563-14.432zm-27.027 16.358c-3.319 3.235-4.833 7.894-4.049 12.461l2.752 16.046-14.411-7.576c-2.051-1.078-4.301-1.617-6.551-1.617s-4.5.539-6.552 1.617l-14.411 7.576 2.752-16.045c.784-4.567-.729-9.226-4.049-12.462l-11.658-11.364 16.112-2.341c4.586-.667 8.549-3.546 10.6-7.701l7.205-14.599 7.206 14.6c2.051 4.155 6.014 7.034 10.6 7.7l16.111 2.341z"/></svg>