<svg id="Capa_1" enable-background="new 0 0 512 512" height="512" viewBox="0 0 512 512" width="512" xmlns="http://www.w3.org/2000/svg"><g><path d="m437.788 348v30h-44v30h44v30h30v-90z" fill="#d0e8ff"/><path d="m318.788 334h89v118h-89z" fill="#596c76"/><path d="m204.788 215v104h30l10-47-10-57z" fill="#d0e8ff"/><path d="m234.788 215h30v104h-30z" fill="#9dcfff"/><path d="m128.788 304v178h106l11-113-11-65z" fill="#9dcfff"/><path d="m234.788 304h114v178h-114z" fill="#72bbff"/><path d="m183.287 0c-27.719 0-50.27 22.551-50.27 50.269v174.731h101.771l21-98-21-127z" fill="#e5f2fa"/><path d="m336.558 50.269c0-27.718-22.551-50.269-50.269-50.269h-51.501v225h101.771v-174.731z" fill="#d0e8ff"/><path d="m131.788 378v30h103l11-15-11-15z" fill="#72bbff"/><path d="m234.788 378h53v30h-53z" fill="#3ba9ff"/><path d="m192.741 129.88c0 23.222 18.825 42.046 42.046 42.046l11-40.927-11-74c.001.001-42.046 49.66-42.046 72.881z" fill="#9dcfff"/><path d="m276.834 129.88c0-23.222-42.046-72.88-42.046-72.88v114.927c23.221 0 42.046-18.825 42.046-42.047z" fill="#72bbff"/><path d="m102.788 274c-32.298 0-58.575 26.277-58.575 58.575v120.85c0 32.298 26.277 58.575 58.575 58.575h42v-238z" fill="#596c76"/></g></svg>